<mxfile host="Electron" agent="Mozilla/5.0 (Windows NT 10.0; Win64; x64) AppleWebKit/537.36 (KHTML, like Gecko) draw.io/28.2.7 Chrome/138.0.7204.251 Electron/37.7.1 Safari/537.36" version="28.2.7">
  <diagram name="Page-1" id="ZV09QY17Rs8oNFz4mhTL">
    <mxGraphModel dx="1042" dy="626" grid="1" gridSize="10" guides="1" tooltips="1" connect="1" arrows="1" fold="1" page="1" pageScale="1" pageWidth="850" pageHeight="1100" background="none" math="0" shadow="0">
      <root>
        <mxCell id="0" />
        <mxCell id="1" parent="0" />
        <mxCell id="UAgzPb9IPhfJk1SHa_W6-35" style="edgeStyle=orthogonalEdgeStyle;rounded=0;orthogonalLoop=1;jettySize=auto;html=1;exitX=0.5;exitY=1;exitDx=0;exitDy=0;entryX=0.5;entryY=0;entryDx=0;entryDy=0;" parent="1" source="ftPgFrTNSF_2koEcd409-2" target="ftPgFrTNSF_2koEcd409-4" edge="1">
          <mxGeometry relative="1" as="geometry" />
        </mxCell>
        <mxCell id="ftPgFrTNSF_2koEcd409-2" value="Initialize Variables" style="rounded=1;whiteSpace=wrap;html=1;fillColor=#d5e8d4;strokeColor=#82b366;" parent="1" vertex="1">
          <mxGeometry x="320" y="120" width="120" height="40" as="geometry" />
        </mxCell>
        <mxCell id="ftPgFrTNSF_2koEcd409-1" value="Start" style="ellipse;whiteSpace=wrap;html=1;fillColor=#fff2cc;strokeColor=#d6b656;" parent="1" vertex="1">
          <mxGeometry x="335" y="30" width="90" height="50" as="geometry" />
        </mxCell>
        <mxCell id="ftPgFrTNSF_2koEcd409-4" value="select_mappng()" style="rounded=1;whiteSpace=wrap;html=1;fillColor=#dae8fc;strokeColor=#6c8ebf;" parent="1" vertex="1">
          <mxGeometry x="320" y="200" width="120" height="40" as="geometry" />
        </mxCell>
        <mxCell id="UAgzPb9IPhfJk1SHa_W6-36" style="edgeStyle=orthogonalEdgeStyle;rounded=0;orthogonalLoop=1;jettySize=auto;html=1;exitX=0.5;exitY=1;exitDx=0;exitDy=0;" parent="1" source="ftPgFrTNSF_2koEcd409-5" target="UAgzPb9IPhfJk1SHa_W6-7" edge="1">
          <mxGeometry relative="1" as="geometry" />
        </mxCell>
        <mxCell id="ftPgFrTNSF_2koEcd409-5" value="Model Selection" style="rhombus;whiteSpace=wrap;html=1;fillColor=#e1d5e7;strokeColor=#9673a6;" parent="1" vertex="1">
          <mxGeometry x="312.5" y="280" width="135" height="80" as="geometry" />
        </mxCell>
        <mxCell id="ftPgFrTNSF_2koEcd409-8" value="" style="endArrow=classic;html=1;rounded=0;" parent="1" edge="1">
          <mxGeometry width="50" height="50" relative="1" as="geometry">
            <mxPoint x="379.5" y="240" as="sourcePoint" />
            <mxPoint x="380" y="280" as="targetPoint" />
          </mxGeometry>
        </mxCell>
        <mxCell id="UAgzPb9IPhfJk1SHa_W6-1" value="Model Not Defined" style="text;html=1;whiteSpace=wrap;strokeColor=none;fillColor=none;align=center;verticalAlign=middle;rounded=0;" parent="1" vertex="1">
          <mxGeometry x="447.5" y="300" width="112.5" height="20" as="geometry" />
        </mxCell>
        <mxCell id="UAgzPb9IPhfJk1SHa_W6-2" value="End" style="ellipse;whiteSpace=wrap;html=1;fillColor=#f8cecc;strokeColor=#b85450;" parent="1" vertex="1">
          <mxGeometry x="520" y="360" width="80" height="50" as="geometry" />
        </mxCell>
        <mxCell id="UAgzPb9IPhfJk1SHa_W6-6" value="" style="edgeStyle=segmentEdgeStyle;endArrow=classic;html=1;curved=0;rounded=0;endSize=8;startSize=8;" parent="1" edge="1">
          <mxGeometry width="50" height="50" relative="1" as="geometry">
            <mxPoint x="450" y="320" as="sourcePoint" />
            <mxPoint x="560" y="360" as="targetPoint" />
          </mxGeometry>
        </mxCell>
        <mxCell id="UAgzPb9IPhfJk1SHa_W6-37" style="edgeStyle=orthogonalEdgeStyle;rounded=0;orthogonalLoop=1;jettySize=auto;html=1;exitX=0.5;exitY=1;exitDx=0;exitDy=0;" parent="1" source="UAgzPb9IPhfJk1SHa_W6-7" target="UAgzPb9IPhfJk1SHa_W6-8" edge="1">
          <mxGeometry relative="1" as="geometry" />
        </mxCell>
        <mxCell id="UAgzPb9IPhfJk1SHa_W6-7" value="set matrix names and operations" style="rounded=1;whiteSpace=wrap;html=1;fillColor=#d5e8d4;strokeColor=#82b366;" parent="1" vertex="1">
          <mxGeometry x="320" y="400" width="120" height="40" as="geometry" />
        </mxCell>
        <mxCell id="UAgzPb9IPhfJk1SHa_W6-38" style="edgeStyle=orthogonalEdgeStyle;rounded=0;orthogonalLoop=1;jettySize=auto;html=1;exitX=0.5;exitY=1;exitDx=0;exitDy=0;entryX=0.5;entryY=0;entryDx=0;entryDy=0;" parent="1" source="UAgzPb9IPhfJk1SHa_W6-8" target="UAgzPb9IPhfJk1SHa_W6-9" edge="1">
          <mxGeometry relative="1" as="geometry" />
        </mxCell>
        <mxCell id="UAgzPb9IPhfJk1SHa_W6-8" value="set signal segments lengths" style="rounded=1;whiteSpace=wrap;html=1;fillColor=#d5e8d4;strokeColor=#82b366;" parent="1" vertex="1">
          <mxGeometry x="320" y="480" width="120" height="40" as="geometry" />
        </mxCell>
        <mxCell id="UAgzPb9IPhfJk1SHa_W6-39" style="edgeStyle=orthogonalEdgeStyle;rounded=0;orthogonalLoop=1;jettySize=auto;html=1;exitX=0.5;exitY=1;exitDx=0;exitDy=0;entryX=0.5;entryY=0;entryDx=0;entryDy=0;" parent="1" source="UAgzPb9IPhfJk1SHa_W6-9" target="UAgzPb9IPhfJk1SHa_W6-10" edge="1">
          <mxGeometry relative="1" as="geometry" />
        </mxCell>
        <mxCell id="UAgzPb9IPhfJk1SHa_W6-9" value="load json raw signal mappings" style="rounded=1;whiteSpace=wrap;html=1;fillColor=#d5e8d4;strokeColor=#82b366;" parent="1" vertex="1">
          <mxGeometry x="320" y="560" width="120" height="40" as="geometry" />
        </mxCell>
        <mxCell id="UAgzPb9IPhfJk1SHa_W6-10" value="Define Model specific indicies" style="rounded=1;whiteSpace=wrap;html=1;fillColor=#d5e8d4;strokeColor=#82b366;" parent="1" vertex="1">
          <mxGeometry x="320" y="640" width="120" height="40" as="geometry" />
        </mxCell>
        <mxCell id="UAgzPb9IPhfJk1SHa_W6-11" value="" style="edgeStyle=segmentEdgeStyle;endArrow=classic;html=1;curved=0;rounded=0;endSize=8;startSize=8;" parent="1" edge="1">
          <mxGeometry width="50" height="50" relative="1" as="geometry">
            <mxPoint x="380" y="730" as="sourcePoint" />
            <mxPoint x="490" y="770" as="targetPoint" />
          </mxGeometry>
        </mxCell>
        <mxCell id="UAgzPb9IPhfJk1SHa_W6-12" value="" style="edgeStyle=segmentEdgeStyle;endArrow=classic;html=1;curved=0;rounded=0;endSize=8;startSize=8;" parent="1" edge="1">
          <mxGeometry width="50" height="50" relative="1" as="geometry">
            <mxPoint x="380" y="730" as="sourcePoint" />
            <mxPoint x="270" y="770" as="targetPoint" />
          </mxGeometry>
        </mxCell>
        <mxCell id="UAgzPb9IPhfJk1SHa_W6-13" value="" style="endArrow=none;html=1;rounded=0;startArrow=none;startFill=0;endFill=0;" parent="1" edge="1">
          <mxGeometry width="50" height="50" relative="1" as="geometry">
            <mxPoint x="379.58000000000004" y="680" as="sourcePoint" />
            <mxPoint x="379.58000000000004" y="730" as="targetPoint" />
          </mxGeometry>
        </mxCell>
        <mxCell id="UAgzPb9IPhfJk1SHa_W6-14" value="dump time series headers" style="rounded=1;whiteSpace=wrap;html=1;fillColor=#dae8fc;strokeColor=#6c8ebf;" parent="1" vertex="1">
          <mxGeometry x="210" y="770" width="120" height="40" as="geometry" />
        </mxCell>
        <mxCell id="UAgzPb9IPhfJk1SHa_W6-15" value="dump matricies heasers" style="rounded=1;whiteSpace=wrap;html=1;fillColor=#dae8fc;strokeColor=#6c8ebf;" parent="1" vertex="1">
          <mxGeometry x="430" y="770" width="120" height="40" as="geometry" />
        </mxCell>
        <mxCell id="UAgzPb9IPhfJk1SHa_W6-16" value="" style="edgeStyle=segmentEdgeStyle;endArrow=none;html=1;curved=0;rounded=0;endSize=8;startSize=8;startArrow=none;startFill=0;endFill=0;" parent="1" edge="1">
          <mxGeometry width="50" height="50" relative="1" as="geometry">
            <mxPoint x="380" y="850" as="sourcePoint" />
            <mxPoint x="490" y="810" as="targetPoint" />
          </mxGeometry>
        </mxCell>
        <mxCell id="UAgzPb9IPhfJk1SHa_W6-17" value="" style="edgeStyle=segmentEdgeStyle;endArrow=none;html=1;curved=0;rounded=0;endSize=8;startSize=8;startArrow=none;startFill=0;endFill=0;" parent="1" edge="1">
          <mxGeometry width="50" height="50" relative="1" as="geometry">
            <mxPoint x="380" y="850" as="sourcePoint" />
            <mxPoint x="270" y="810" as="targetPoint" />
          </mxGeometry>
        </mxCell>
        <mxCell id="UAgzPb9IPhfJk1SHa_W6-18" value="" style="endArrow=classic;html=1;rounded=0;" parent="1" edge="1">
          <mxGeometry width="50" height="50" relative="1" as="geometry">
            <mxPoint x="379.58" y="850" as="sourcePoint" />
            <mxPoint x="379.58" y="900" as="targetPoint" />
          </mxGeometry>
        </mxCell>
        <mxCell id="UAgzPb9IPhfJk1SHa_W6-19" value="delete extra headers : thermals and dissipations" style="rounded=1;whiteSpace=wrap;html=1;fillColor=#d5e8d4;strokeColor=#82b366;" parent="1" vertex="1">
          <mxGeometry x="310" y="900" width="140" height="40" as="geometry" />
        </mxCell>
        <mxCell id="UAgzPb9IPhfJk1SHa_W6-20" value="" style="edgeStyle=segmentEdgeStyle;endArrow=classic;html=1;curved=0;rounded=0;endSize=8;startSize=8;" parent="1" edge="1">
          <mxGeometry width="50" height="50" relative="1" as="geometry">
            <mxPoint x="380" y="990" as="sourcePoint" />
            <mxPoint x="490" y="1030" as="targetPoint" />
          </mxGeometry>
        </mxCell>
        <mxCell id="UAgzPb9IPhfJk1SHa_W6-21" value="" style="edgeStyle=segmentEdgeStyle;endArrow=classic;html=1;curved=0;rounded=0;endSize=8;startSize=8;" parent="1" edge="1">
          <mxGeometry width="50" height="50" relative="1" as="geometry">
            <mxPoint x="380" y="990" as="sourcePoint" />
            <mxPoint x="270" y="1030" as="targetPoint" />
          </mxGeometry>
        </mxCell>
        <mxCell id="UAgzPb9IPhfJk1SHa_W6-22" value="" style="endArrow=none;html=1;rounded=0;startArrow=none;startFill=0;endFill=0;" parent="1" edge="1">
          <mxGeometry width="50" height="50" relative="1" as="geometry">
            <mxPoint x="379.58000000000004" y="940" as="sourcePoint" />
            <mxPoint x="379.58000000000004" y="990" as="targetPoint" />
          </mxGeometry>
        </mxCell>
        <mxCell id="UAgzPb9IPhfJk1SHa_W6-23" value="generate time series mapping" style="rounded=1;whiteSpace=wrap;html=1;fillColor=#dae8fc;strokeColor=#6c8ebf;" parent="1" vertex="1">
          <mxGeometry x="210" y="1030" width="120" height="40" as="geometry" />
        </mxCell>
        <mxCell id="UAgzPb9IPhfJk1SHa_W6-24" value="generate multiplots mapping" style="rounded=1;whiteSpace=wrap;html=1;fillColor=#d5e8d4;strokeColor=#82b366;" parent="1" vertex="1">
          <mxGeometry x="430" y="1030" width="120" height="40" as="geometry" />
        </mxCell>
        <mxCell id="UAgzPb9IPhfJk1SHa_W6-25" value="" style="edgeStyle=segmentEdgeStyle;endArrow=none;html=1;curved=0;rounded=0;endSize=8;startSize=8;startArrow=none;startFill=0;endFill=0;" parent="1" edge="1">
          <mxGeometry width="50" height="50" relative="1" as="geometry">
            <mxPoint x="380" y="1110" as="sourcePoint" />
            <mxPoint x="490" y="1070" as="targetPoint" />
          </mxGeometry>
        </mxCell>
        <mxCell id="UAgzPb9IPhfJk1SHa_W6-26" value="" style="edgeStyle=segmentEdgeStyle;endArrow=none;html=1;curved=0;rounded=0;endSize=8;startSize=8;startArrow=none;startFill=0;endFill=0;" parent="1" edge="1">
          <mxGeometry width="50" height="50" relative="1" as="geometry">
            <mxPoint x="380" y="1110" as="sourcePoint" />
            <mxPoint x="270" y="1070" as="targetPoint" />
          </mxGeometry>
        </mxCell>
        <mxCell id="UAgzPb9IPhfJk1SHa_W6-27" value="" style="endArrow=classic;html=1;rounded=0;" parent="1" edge="1">
          <mxGeometry width="50" height="50" relative="1" as="geometry">
            <mxPoint x="379.5799999999999" y="1110" as="sourcePoint" />
            <mxPoint x="379.5799999999999" y="1160" as="targetPoint" />
          </mxGeometry>
        </mxCell>
        <mxCell id="UAgzPb9IPhfJk1SHa_W6-40" style="edgeStyle=orthogonalEdgeStyle;rounded=0;orthogonalLoop=1;jettySize=auto;html=1;exitX=0.5;exitY=1;exitDx=0;exitDy=0;entryX=0.5;entryY=0;entryDx=0;entryDy=0;" parent="1" source="UAgzPb9IPhfJk1SHa_W6-28" target="UAgzPb9IPhfJk1SHa_W6-29" edge="1">
          <mxGeometry relative="1" as="geometry" />
        </mxCell>
        <mxCell id="UAgzPb9IPhfJk1SHa_W6-28" value="generate pwms dictionary" style="rounded=1;whiteSpace=wrap;html=1;fillColor=#d5e8d4;strokeColor=#82b366;" parent="1" vertex="1">
          <mxGeometry x="320" y="1160" width="120" height="40" as="geometry" />
        </mxCell>
        <mxCell id="UAgzPb9IPhfJk1SHa_W6-41" style="edgeStyle=orthogonalEdgeStyle;rounded=0;orthogonalLoop=1;jettySize=auto;html=1;exitX=0.5;exitY=1;exitDx=0;exitDy=0;" parent="1" source="UAgzPb9IPhfJk1SHa_W6-29" target="UAgzPb9IPhfJk1SHa_W6-30" edge="1">
          <mxGeometry relative="1" as="geometry" />
        </mxCell>
        <mxCell id="UAgzPb9IPhfJk1SHa_W6-29" value="generate plots dictionaries" style="rounded=1;whiteSpace=wrap;html=1;fillColor=#d5e8d4;strokeColor=#82b366;" parent="1" vertex="1">
          <mxGeometry x="320" y="1240" width="120" height="40" as="geometry" />
        </mxCell>
        <mxCell id="UAgzPb9IPhfJk1SHa_W6-42" style="edgeStyle=orthogonalEdgeStyle;rounded=0;orthogonalLoop=1;jettySize=auto;html=1;exitX=0.5;exitY=1;exitDx=0;exitDy=0;entryX=0.5;entryY=0;entryDx=0;entryDy=0;" parent="1" source="UAgzPb9IPhfJk1SHa_W6-30" target="UAgzPb9IPhfJk1SHa_W6-31" edge="1">
          <mxGeometry relative="1" as="geometry" />
        </mxCell>
        <mxCell id="UAgzPb9IPhfJk1SHa_W6-30" value="generate operational constants dictionary" style="rounded=1;whiteSpace=wrap;html=1;fillColor=#d5e8d4;strokeColor=#82b366;" parent="1" vertex="1">
          <mxGeometry x="320" y="1330" width="120" height="40" as="geometry" />
        </mxCell>
        <mxCell id="UAgzPb9IPhfJk1SHa_W6-32" value="" style="endArrow=classic;html=1;rounded=0;" parent="1" edge="1">
          <mxGeometry width="50" height="50" relative="1" as="geometry">
            <mxPoint x="379.58" y="80" as="sourcePoint" />
            <mxPoint x="380.08" y="120" as="targetPoint" />
          </mxGeometry>
        </mxCell>
        <mxCell id="UAgzPb9IPhfJk1SHa_W6-31" value="End" style="ellipse;whiteSpace=wrap;html=1;fillColor=#fff2cc;strokeColor=#d6b656;" parent="1" vertex="1">
          <mxGeometry x="340" y="1400" width="80" height="50" as="geometry" />
        </mxCell>
        <mxCell id="UAgzPb9IPhfJk1SHa_W6-57" value="" style="whiteSpace=wrap;html=1;aspect=fixed;fillColor=none;dashed=1;dashPattern=8 8;strokeColor=#007FFF;" parent="1" vertex="1">
          <mxGeometry x="630" y="80" width="170" height="170" as="geometry" />
        </mxCell>
        <mxCell id="UAgzPb9IPhfJk1SHa_W6-49" value="start/end" style="rounded=1;whiteSpace=wrap;html=1;fillColor=#fff2cc;strokeColor=#d6b656;" parent="1" vertex="1">
          <mxGeometry x="670" y="95" width="90" height="20" as="geometry" />
        </mxCell>
        <mxCell id="UAgzPb9IPhfJk1SHa_W6-51" value="process" style="rounded=1;whiteSpace=wrap;html=1;fillColor=#d5e8d4;strokeColor=#82b366;" parent="1" vertex="1">
          <mxGeometry x="670" y="125" width="90" height="20" as="geometry" />
        </mxCell>
        <mxCell id="UAgzPb9IPhfJk1SHa_W6-53" value="function/method" style="rounded=1;whiteSpace=wrap;html=1;fillColor=#dae8fc;strokeColor=#6c8ebf;" parent="1" vertex="1">
          <mxGeometry x="670" y="155" width="90" height="20" as="geometry" />
        </mxCell>
        <mxCell id="UAgzPb9IPhfJk1SHa_W6-55" value="decision" style="rounded=1;whiteSpace=wrap;html=1;fillColor=#e1d5e7;strokeColor=#9673a6;" parent="1" vertex="1">
          <mxGeometry x="670" y="185" width="90" height="20" as="geometry" />
        </mxCell>
        <mxCell id="UAgzPb9IPhfJk1SHa_W6-56" value="exit" style="rounded=1;whiteSpace=wrap;html=1;fillColor=#f8cecc;strokeColor=#b85450;" parent="1" vertex="1">
          <mxGeometry x="670" y="215" width="90" height="20" as="geometry" />
        </mxCell>
      </root>
    </mxGraphModel>
  </diagram>
</mxfile>
